<?xml version="1.0" standalone="no"?>
<!DOCTYPE svg PUBLIC "-//W3C//DTD SVG 20010904//EN"
 "http://www.w3.org/TR/2001/REC-SVG-20010904/DTD/svg10.dtd">
<svg version="1.0" xmlns="http://www.w3.org/2000/svg"
 width="256.000000pt" height="256.000000pt" viewBox="0 0 256.000000 256.000000"
 preserveAspectRatio="xMidYMid meet">

<g transform="translate(0.000000,256.000000) scale(0.100000,-0.100000)"
fill="#000000" stroke="none">
<path d="M0 1295 l0 -786 453 4 c496 4 504 5 630 69 171 86 259 262 228 456
-22 146 -87 238 -207 294 -35 16 -64 32 -64 34 0 2 14 11 31 19 123 64 187
202 169 365 -17 160 -105 257 -277 307 -49 14 -125 17 -510 21 l-453 3 0 -786z
m783 504 c50 -13 103 -61 118 -106 15 -47 5 -125 -21 -168 -12 -20 -40 -43
-68 -56 -43 -21 -64 -23 -254 -27 l-208 -4 0 186 0 186 198 0 c108 0 214 -5
235 -11z m44 -604 c99 -30 142 -91 143 -204 0 -88 -27 -142 -88 -179 l-47 -27
-242 -3 -243 -3 0 215 0 216 213 0 c160 0 226 -4 264 -15z"/>
<path d="M1670 1920 l0 -80 320 0 320 0 0 80 0 80 -320 0 -320 0 0 -80z"/>
<path d="M1877 1665 c-210 -43 -375 -202 -433 -415 -24 -87 -24 -262 -1 -350
53 -200 183 -336 377 -394 89 -27 222 -31 320 -12 171 35 283 122 360 279 l40
82 -138 3 c-98 2 -138 -1 -141 -9 -2 -7 -19 -29 -37 -49 -106 -118 -345 -112
-433 11 -30 41 -42 74 -55 151 l-7 38 413 2 413 3 -1 90 c-4 269 -150 487
-373 555 -86 27 -217 33 -304 15z m244 -252 c64 -33 105 -92 115 -165 l7 -48
-256 0 -255 0 9 41 c30 131 116 198 255 199 57 0 80 -5 125 -27z"/>
</g>
</svg>
