<svg width="108" height="44" viewBox="0 0 108 44" fill="none" xmlns="http://www.w3.org/2000/svg">
<path d="M18.5883 21.7636C17.991 22.391 17.8508 24.9238 17.6982 25.8485C17.4054 27.6235 16.791 29.6764 16.2233 31.3924C15.5824 33.3296 14.3567 35.4726 12.7907 36.8089C11.438 37.9635 8.43604 38.1646 7.41669 36.4494C6.20188 34.4042 7.74375 32.5469 8.01397 30.4598C8.10274 29.7711 8.10197 29.2377 7.4494 28.8262C6.41759 28.1747 5.52751 28.8689 4.52218 29.0436C1.80209 29.5172 -0.675804 26.2631 0.167553 23.6915C1.1285 20.762 4.65767 20.2192 7.31779 20.7907C9.64929 21.2915 14.0724 23.4896 16.256 22.0563C17.1352 21.4794 16.8805 20.227 16.1392 19.633C14.4174 18.2548 10.5518 18.3845 8.32157 17.7245C5.06183 16.7586 0.305386 13.5464 1.43531 9.58187C2.04194 7.45362 3.84546 7.72616 5.54152 8.29452C6.38176 8.5756 7.73986 9.35981 8.49055 9.48482C9.80659 9.70455 9.89303 8.53134 9.46707 7.59804C8.7265 5.97293 6.91597 4.98529 8.06147 2.83375C9.56518 0.0105727 13.6768 1.05335 15.3433 3.17927C16.7388 4.96044 17.4941 8.85434 17.611 11.1029C17.6912 12.6442 17.354 16.2539 18.6685 17.3029C19.7961 18.202 20.7609 16.8168 21.1495 15.8843C21.7639 14.4091 22.3705 12.7249 22.8611 11.2015C23.5207 9.15483 23.9926 6.95747 24.737 4.95268C25.3351 3.34154 26.2984 2.17454 28.0443 1.76457C29.3346 1.46176 31.0322 1.88725 31.6537 3.15131C32.8669 5.61732 29.0597 7.94279 30.5689 9.99883C31.9247 11.846 34.2328 9.39397 35.988 9.49569C39.8505 9.7193 40.4205 13.9603 37.5502 16.1452C35.6493 17.5925 31.2526 17.5506 28.9087 17.5684C27.5591 17.5793 26.0811 17.4263 24.7612 17.5164C21.8402 17.716 21.7257 20.727 23.9139 22.113C25.0221 22.8141 26.6527 22.9989 27.9446 22.9492C31.772 22.8025 35.2366 21.0811 37.9107 24.9214C39.1333 26.677 39.7181 28.5304 38.9737 30.633C38.1412 32.9856 36.5643 33.5889 34.2172 32.6875C32.606 32.0686 32.2401 30.0398 30.4942 30.1027C29.1501 30.1516 28.7654 31.3069 28.9998 32.4608C29.3946 34.3988 30.7971 37.0162 28.5396 38.4845C26.7765 39.6305 25.1241 39.1328 23.7979 37.649C21.9259 35.5541 21.6541 30.3123 21.2624 27.5419C21.0202 25.8283 20.4837 23.5463 19.4776 22.1153C19.258 21.8032 18.9659 21.3661 18.5883 21.7628L18.5883 21.7636Z" fill="#4949F2"/>
<path d="M54.6491 13.965H59.2481V17.115H50.5331V2.30999H54.6491V13.965ZM72.9026 5.33399V17.115H68.7656V15.435C68.4156 15.967 67.9326 16.401 67.3166 16.737C66.7006 17.059 65.9936 17.22 65.1956 17.22C63.8236 17.22 62.7386 16.772 61.9406 15.876C61.1566 14.966 60.7646 13.734 60.7646 12.18V5.33399H64.8596V11.655C64.8596 12.327 65.0346 12.859 65.3846 13.251C65.7486 13.629 66.2246 13.818 66.8126 13.818C67.4146 13.818 67.8906 13.629 68.2406 13.251C68.5906 12.859 68.7656 12.327 68.7656 11.655V5.33399H72.9026ZM74.5731 11.214C74.5731 9.99599 74.8251 8.93199 75.3291 8.02199C75.8331 7.11199 76.5331 6.41199 77.4291 5.92199C78.3391 5.43199 79.3751 5.18699 80.5371 5.18699C82.0351 5.18699 83.2951 5.59999 84.3171 6.42599C85.3391 7.23799 85.9971 8.37899 86.2911 9.84899H81.9231C81.6711 9.07899 81.1811 8.69399 80.4531 8.69399C79.9351 8.69399 79.5221 8.91099 79.2141 9.34499C78.9201 9.76499 78.7731 10.388 78.7731 11.214C78.7731 12.04 78.9201 12.67 79.2141 13.104C79.5221 13.538 79.9351 13.755 80.4531 13.755C81.1951 13.755 81.6851 13.37 81.9231 12.6H86.2911C85.9971 14.056 85.3391 15.197 84.3171 16.023C83.2951 16.849 82.0351 17.262 80.5371 17.262C79.3751 17.262 78.3391 17.017 77.4291 16.527C76.5331 16.037 75.8331 15.337 75.3291 14.427C74.8251 13.517 74.5731 12.446 74.5731 11.214ZM90.0799 4.24199C89.3519 4.24199 88.7639 4.04599 88.3159 3.65399C87.8819 3.24799 87.6649 2.74399 87.6649 2.14199C87.6649 1.52599 87.8819 1.01499 88.3159 0.60899C88.7639 0.202989 89.3519 -1.09673e-05 90.0799 -1.09673e-05C90.7939 -1.09673e-05 91.3679 0.202989 91.8019 0.60899C92.2499 1.01499 92.4739 1.52599 92.4739 2.14199C92.4739 2.74399 92.2499 3.24799 91.8019 3.65399C91.3679 4.04599 90.7939 4.24199 90.0799 4.24199ZM92.1169 5.33399V17.115H88.0009V5.33399H92.1169ZM105.717 11.088C105.717 11.41 105.696 11.732 105.654 12.054H97.8629C97.9049 12.698 98.0799 13.181 98.3879 13.503C98.7099 13.811 99.1159 13.965 99.6059 13.965C100.292 13.965 100.782 13.657 101.076 13.041H105.465C105.283 13.853 104.926 14.581 104.394 15.225C103.876 15.855 103.218 16.352 102.42 16.716C101.622 17.08 100.74 17.262 99.7739 17.262C98.6119 17.262 97.5759 17.017 96.6659 16.527C95.7699 16.037 95.0629 15.337 94.5449 14.427C94.0409 13.517 93.7889 12.446 93.7889 11.214C93.7889 9.98199 94.0409 8.91799 94.5449 8.02199C95.0489 7.11199 95.7489 6.41199 96.6449 5.92199C97.5549 5.43199 98.5979 5.18699 99.7739 5.18699C100.936 5.18699 101.965 5.42499 102.861 5.90099C103.757 6.37699 104.457 7.06299 104.961 7.95899C105.465 8.84099 105.717 9.88399 105.717 11.088ZM101.517 10.059C101.517 9.55499 101.349 9.16299 101.013 8.88299C100.677 8.58899 100.257 8.44199 99.7529 8.44199C99.2489 8.44199 98.8359 8.58199 98.5139 8.86199C98.1919 9.12799 97.9819 9.52699 97.8839 10.059H101.517ZM56.4411 37.269C54.6371 37.269 53.1558 36.8437 51.9971 35.993C50.8385 35.1277 50.2151 33.8957 50.1271 32.297H54.7251C54.7691 32.8397 54.9305 33.2357 55.2091 33.485C55.4878 33.7343 55.8471 33.859 56.2871 33.859C56.6831 33.859 57.0058 33.7637 57.2551 33.573C57.5191 33.3677 57.6511 33.089 57.6511 32.737C57.6511 32.2823 57.4385 31.9303 57.0131 31.681C56.5878 31.4317 55.8985 31.153 54.9451 30.845C53.9331 30.5077 53.1118 30.185 52.4811 29.877C51.8651 29.5543 51.3225 29.0923 50.8531 28.491C50.3985 27.875 50.1711 27.0757 50.1711 26.093C50.1711 25.0957 50.4205 24.245 50.9191 23.541C51.4178 22.8223 52.1071 22.2797 52.9871 21.913C53.8671 21.5463 54.8645 21.363 55.9791 21.363C57.7831 21.363 59.2205 21.7883 60.2911 22.639C61.3765 23.475 61.9558 24.6557 62.0291 26.181H57.3431C57.3285 25.7117 57.1818 25.3597 56.9031 25.125C56.6391 24.8903 56.2945 24.773 55.8691 24.773C55.5465 24.773 55.2825 24.8683 55.0771 25.059C54.8718 25.2497 54.7691 25.521 54.7691 25.873C54.7691 26.1663 54.8791 26.423 55.0991 26.643C55.3338 26.8483 55.6198 27.0317 55.9571 27.193C56.2945 27.3397 56.7931 27.5303 57.4531 27.765C58.4358 28.1023 59.2425 28.4397 59.8731 28.777C60.5185 29.0997 61.0685 29.5617 61.5231 30.163C61.9925 30.7497 62.2271 31.4977 62.2271 32.407C62.2271 33.331 61.9925 34.1597 61.5231 34.893C61.0685 35.6263 60.4011 36.2057 59.5211 36.631C58.6558 37.0563 57.6291 37.269 56.4411 37.269ZM76.0237 30.801C76.0237 31.1383 76.0017 31.4757 75.9577 31.813H67.7957C67.8397 32.4877 68.0231 32.9937 68.3457 33.331C68.6831 33.6537 69.1084 33.815 69.6217 33.815C70.3404 33.815 70.8537 33.4923 71.1617 32.847H75.7597C75.5691 33.6977 75.1951 34.4603 74.6377 35.135C74.0951 35.795 73.4057 36.3157 72.5697 36.697C71.7337 37.0783 70.8097 37.269 69.7977 37.269C68.5804 37.269 67.4951 37.0123 66.5417 36.499C65.6031 35.9857 64.8624 35.2523 64.3197 34.299C63.7917 33.3457 63.5277 32.2237 63.5277 30.933C63.5277 29.6423 63.7917 28.5277 64.3197 27.589C64.8477 26.6357 65.5811 25.9023 66.5197 25.389C67.4731 24.8757 68.5657 24.619 69.7977 24.619C71.0151 24.619 72.0931 24.8683 73.0317 25.367C73.9704 25.8657 74.7037 26.5843 75.2317 27.523C75.7597 28.447 76.0237 29.5397 76.0237 30.801ZM71.6237 29.723C71.6237 29.195 71.4477 28.7843 71.0957 28.491C70.7437 28.183 70.3037 28.029 69.7757 28.029C69.2477 28.029 68.8151 28.1757 68.4777 28.469C68.1404 28.7477 67.9204 29.1657 67.8177 29.723H71.6237ZM85.8624 24.663C87.285 24.663 88.4144 25.1397 89.2504 26.093C90.0864 27.0317 90.5044 28.3077 90.5044 29.921V37.115H86.1924V30.493C86.1924 29.789 86.009 29.239 85.6424 28.843C85.2757 28.4323 84.7844 28.227 84.1684 28.227C83.523 28.227 83.017 28.4323 82.6504 28.843C82.2837 29.239 82.1004 29.789 82.1004 30.493V37.115H77.7884V24.773H82.1004V26.533C82.4817 25.9757 82.995 25.5283 83.6404 25.191C84.2857 24.839 85.0264 24.663 85.8624 24.663ZM97.4244 24.619C98.2604 24.619 98.9864 24.7877 99.6024 25.125C100.233 25.4623 100.717 25.917 101.054 26.489V24.773H105.366V36.983C105.366 38.1417 105.146 39.183 104.706 40.107C104.266 41.0457 103.577 41.7937 102.638 42.351C101.714 42.9083 100.541 43.187 99.1184 43.187C97.2117 43.187 95.6864 42.7397 94.5424 41.845C93.3984 40.9503 92.7457 39.733 92.5844 38.193H96.8304C96.9184 38.589 97.1384 38.897 97.4904 39.117C97.8424 39.337 98.2971 39.447 98.8544 39.447C100.321 39.447 101.054 38.6257 101.054 36.983V35.399C100.717 35.971 100.233 36.4257 99.6024 36.763C98.9864 37.1003 98.2604 37.269 97.4244 37.269C96.4417 37.269 95.5471 37.0123 94.7404 36.499C93.9484 35.9857 93.3177 35.2523 92.8484 34.299C92.3937 33.331 92.1664 32.209 92.1664 30.933C92.1664 29.657 92.3937 28.5423 92.8484 27.589C93.3177 26.6357 93.9484 25.9023 94.7404 25.389C95.5471 24.8757 96.4417 24.619 97.4244 24.619ZM101.054 30.933C101.054 30.141 100.834 29.5177 100.394 29.063C99.9691 28.6083 99.4411 28.381 98.8104 28.381C98.1651 28.381 97.6297 28.6083 97.2044 29.063C96.7791 29.503 96.5664 30.1263 96.5664 30.933C96.5664 31.725 96.7791 32.3557 97.2044 32.825C97.6297 33.2797 98.1651 33.507 98.8104 33.507C99.4411 33.507 99.9691 33.2797 100.394 32.825C100.834 32.3703 101.054 31.7397 101.054 30.933Z" fill="#4949F2"/>
</svg>
